<svg xmlns="http://www.w3.org/2000/svg" xmlns:xlink="http://www.w3.org/1999/xlink" width="500" zoomAndPan="magnify" viewBox="0 0 375 374.999991" height="500" preserveAspectRatio="xMidYMid meet" version="1.0"><defs><g/><clipPath id="643e67e81d"><path d="M 133.355469 98.535156 L 242.976562 98.535156 L 242.976562 182.5 L 133.355469 182.5 Z M 133.355469 98.535156 " clip-rule="nonzero"/></clipPath><clipPath id="ae7e446049"><path d="M 245.863281 119 L 276.183594 119 L 276.183594 135.960938 L 245.863281 135.960938 Z M 245.863281 119 " clip-rule="nonzero"/></clipPath></defs><g clip-path="url(#643e67e81d)"><path fill="#231f20" d="M 182.394531 102.421875 C 181.613281 105.800781 178.945312 108.46875 175.570312 109.253906 C 176.351562 105.871094 179.015625 103.203125 182.394531 102.421875 Z M 161.238281 123.234375 L 169.683594 124.082031 C 169.746094 124.085938 169.804688 124.089844 169.867188 124.089844 L 179.042969 124.089844 C 179.253906 127.359375 180.039062 130.53125 181.378906 133.542969 C 181.382812 133.550781 181.390625 133.566406 181.394531 133.574219 C 181.40625 133.605469 181.421875 133.636719 181.4375 133.667969 C 181.558594 133.941406 181.691406 134.226562 181.84375 134.53125 C 183.714844 138.320312 186.476562 141.683594 189.832031 144.253906 L 199.28125 151.488281 C 199.199219 151.476562 199.117188 151.46875 199.035156 151.46875 L 184.613281 151.46875 L 167.179688 148.296875 C 168.210938 146.261719 169.296875 143.597656 169.851562 139.148438 L 166.234375 138.695312 C 165.632812 143.519531 164.421875 145.753906 163.253906 147.917969 C 163.113281 148.179688 162.972656 148.4375 162.835938 148.699219 C 160.519531 152.160156 157.625 155.132812 154.230469 157.53125 C 151.101562 159.75 147.648438 161.40625 143.964844 162.457031 L 143.847656 162.492188 C 142.929688 162.75 142.371094 163.671875 142.558594 164.605469 L 144.378906 173.730469 C 144.550781 174.585938 145.296875 175.199219 146.167969 175.199219 L 149.8125 175.199219 C 150.816406 175.199219 151.636719 176.019531 151.636719 177.023438 L 151.636719 178.851562 L 140.371094 178.851562 L 137.15625 162.757812 L 142.261719 154.234375 C 142.429688 153.949219 142.519531 153.625 142.519531 153.296875 L 142.519531 140.199219 C 142.519531 138.171875 142.878906 136.179688 143.578125 134.28125 C 144.28125 132.378906 145.304688 130.636719 146.621094 129.101562 C 147.027344 128.625 147.464844 128.171875 147.925781 127.742188 L 147.988281 127.742188 L 147.988281 127.679688 C 148.132812 127.550781 148.273438 127.421875 148.421875 127.296875 C 151.941406 124.25 156.613281 122.769531 161.238281 123.234375 Z M 199.730469 107.371094 C 202.089844 105.203125 205.152344 104.011719 208.351562 104.011719 L 221.871094 104.011719 C 223.957031 104.011719 225.832031 105.171875 226.765625 107.039062 L 227.074219 107.664062 L 223.027344 107.664062 L 221.679688 107.210938 C 220.214844 106.722656 218.59375 106.867188 217.238281 107.613281 C 217.210938 107.628906 217.183594 107.644531 217.15625 107.664062 L 211.308594 107.664062 C 207.609375 107.664062 204.128906 109.105469 201.515625 111.722656 L 183.746094 129.515625 C 183.082031 127.425781 182.710938 125.265625 182.640625 123.054688 Z M 232.578125 116.421875 L 238.753906 121.0625 L 236.085938 127.742188 L 229.261719 127.742188 L 222.492188 115.882812 C 222.269531 115.492188 221.914062 115.199219 221.488281 115.058594 L 219.308594 114.332031 C 218.363281 114.015625 217.808594 113.007812 218.050781 112.035156 C 218.183594 111.507812 218.515625 111.074219 218.992188 110.8125 C 219.46875 110.550781 220.011719 110.503906 220.527344 110.675781 L 222.15625 111.21875 C 222.34375 111.28125 222.539062 111.3125 222.734375 111.3125 L 229.050781 111.3125 L 232.15625 115.976562 C 232.269531 116.148438 232.414062 116.300781 232.578125 116.421875 Z M 234.304688 134.105469 C 234.128906 134.808594 233.554688 135.339844 232.835938 135.460938 L 225.863281 136.625 C 224.335938 136.878906 222.980469 137.773438 222.144531 139.085938 L 211.324219 156.113281 L 205.003906 151.273438 L 216.984375 133.28125 C 217.769531 132.097656 219.089844 131.390625 220.507812 131.390625 L 234.984375 131.390625 Z M 208.828125 124.921875 C 210.105469 123.257812 212.121094 122.265625 214.21875 122.265625 L 221.9375 122.265625 L 225.0625 127.742188 L 220.507812 127.742188 C 217.867188 127.742188 215.414062 129.054688 213.949219 131.257812 L 202.101562 149.050781 L 194.664062 143.359375 Z M 218.15625 117.792969 L 219.671875 118.300781 L 219.851562 118.613281 L 214.21875 118.613281 C 211 118.613281 207.902344 120.140625 205.9375 122.695312 L 191.773438 141.136719 C 189.058594 138.996094 186.816406 136.257812 185.246094 133.175781 L 204.09375 114.304688 C 206.019531 112.375 208.582031 111.3125 211.308594 111.3125 L 214.480469 111.3125 C 213.875 114.074219 215.464844 116.894531 218.15625 117.792969 Z M 215.441406 175.199219 C 216.445312 175.199219 217.265625 176.019531 217.265625 177.023438 L 217.265625 178.851562 L 206 178.851562 L 200.820312 152.9375 C 200.796875 152.8125 200.757812 152.695312 200.710938 152.582031 L 209.972656 159.671875 L 209.972656 173.375 C 209.972656 174.382812 210.789062 175.199219 211.796875 175.199219 Z M 192.144531 155.121094 L 197.539062 155.121094 L 202.28125 178.851562 L 196.882812 178.851562 Z M 164.820312 161.253906 C 164.414062 161.738281 164.292969 162.398438 164.492188 163 L 168.136719 173.953125 C 168.386719 174.695312 169.082031 175.199219 169.867188 175.199219 L 173.511719 175.199219 C 174.515625 175.199219 175.335938 176.019531 175.335938 177.023438 L 175.335938 178.851562 L 163.757812 178.851562 L 157.105469 163.859375 L 157.105469 159.945312 C 160.234375 157.609375 162.960938 154.832031 165.230469 151.652344 L 171.8125 152.851562 Z M 133.40625 119.527344 C 133.40625 124.054688 137.085938 127.742188 141.609375 127.742188 L 143.042969 127.742188 C 141.832031 129.347656 140.863281 131.113281 140.160156 133.015625 C 139.308594 135.320312 138.875 137.734375 138.875 140.199219 L 138.875 152.789062 L 133.664062 161.484375 C 133.433594 161.871094 133.351562 162.335938 133.441406 162.78125 L 137.085938 181.035156 C 137.257812 181.886719 138.007812 182.5 138.875 182.5 L 153.460938 182.5 C 154.464844 182.5 155.28125 181.683594 155.28125 180.675781 L 155.28125 177.023438 C 155.28125 174.003906 152.828125 171.546875 149.8125 171.546875 L 147.660156 171.546875 L 146.457031 165.507812 C 148.898438 164.699219 151.238281 163.640625 153.460938 162.351562 L 153.460938 164.246094 C 153.460938 164.503906 153.511719 164.753906 153.617188 164.988281 L 160.90625 181.417969 C 161.199219 182.074219 161.855469 182.5 162.574219 182.5 L 177.160156 182.5 C 178.164062 182.5 178.980469 181.683594 178.980469 180.675781 L 178.980469 177.023438 C 178.980469 174.003906 176.527344 171.546875 173.511719 171.546875 L 171.179688 171.546875 L 168.269531 162.808594 L 175.933594 153.601562 L 184.125 155.089844 C 184.230469 155.109375 184.339844 155.121094 184.449219 155.121094 L 188.425781 155.121094 L 193.601562 181.035156 C 193.769531 181.886719 194.519531 182.5 195.386719 182.5 L 219.085938 182.5 C 220.09375 182.5 220.910156 181.683594 220.910156 180.675781 L 220.910156 177.023438 C 220.910156 174.003906 218.457031 171.546875 215.441406 171.546875 L 213.617188 171.546875 L 213.617188 159.300781 L 225.222656 141.046875 C 225.5 140.609375 225.949219 140.308594 226.460938 140.226562 L 233.433594 139.0625 C 235.585938 138.703125 237.316406 137.105469 237.84375 134.988281 L 239.054688 130.128906 L 242.65625 121.117188 C 242.964844 120.351562 242.71875 119.472656 242.058594 118.980469 L 235.015625 113.691406 L 231.605469 108.570312 L 230.023438 105.40625 C 228.472656 102.292969 225.347656 100.359375 221.871094 100.359375 L 208.351562 100.359375 C 204.238281 100.359375 200.300781 101.894531 197.265625 104.679688 L 180.09375 120.441406 L 169.957031 120.441406 L 161.601562 119.601562 C 156.210938 119.0625 150.773438 120.695312 146.570312 124.089844 L 141.609375 124.089844 C 139.097656 124.089844 137.050781 122.042969 137.050781 119.527344 C 137.050781 117.011719 139.097656 114.964844 141.609375 114.964844 L 166.53125 114.964844 C 169.019531 114.964844 171.40625 114.328125 173.515625 113.136719 C 180.550781 113.136719 186.273438 107.40625 186.273438 100.359375 C 186.273438 99.351562 185.457031 98.535156 184.449219 98.535156 C 177.878906 98.535156 172.453125 103.535156 171.765625 109.9375 C 170.1875 110.832031 168.398438 111.3125 166.53125 111.3125 L 141.609375 111.3125 C 137.085938 111.3125 133.40625 114.996094 133.40625 119.527344 " fill-opacity="1" fill-rule="nonzero"/></g><g clip-path="url(#ae7e446049)"><path fill="#ff0000" d="M 245.863281 130.277344 C 246.296875 130.433594 246.742188 130.527344 247.199219 130.546875 C 247.65625 130.570312 248.109375 130.523438 248.554688 130.410156 C 249 130.292969 249.417969 130.113281 249.804688 129.871094 C 250.195312 129.628906 250.539062 129.335938 250.839844 128.988281 C 253.335938 126.472656 259.394531 117.085938 268.726562 119.726562 C 271.683594 120.601562 274.171875 122.207031 276.183594 124.539062 C 275.285156 124.46875 274.410156 124.582031 273.558594 124.878906 C 272.703125 125.175781 271.949219 125.628906 271.285156 126.242188 C 266.117188 131.683594 263.828125 135.550781 257.832031 135.550781 C 251.035156 135.566406 250.140625 134.546875 245.863281 130.277344 Z M 245.863281 130.277344 " fill-opacity="1" fill-rule="nonzero"/></g><g fill="#ff0000" fill-opacity="1"><g transform="translate(127.342441, 242.164114)"><g><path d="M 4.671875 0 L 4.671875 -44.046875 L 15.8125 -44.046875 L 15.8125 -9.484375 L 33.296875 -9.484375 L 33.296875 0 Z M 4.671875 0 "/></g></g></g><g fill="#ff0000" fill-opacity="1"><g transform="translate(162.559709, 242.164114)"><g><path d="M 4.671875 0 L 4.671875 -44.046875 L 35.921875 -44.046875 L 35.921875 -35.03125 L 15.8125 -35.03125 L 15.8125 -26.765625 L 32.84375 -26.765625 L 32.84375 -17.734375 L 15.8125 -17.734375 L 15.8125 -9.03125 L 35.921875 -9.03125 L 35.921875 0 Z M 4.671875 0 "/></g></g></g><g fill="#ff0000" fill-opacity="1"><g transform="translate(202.387229, 242.164114)"><g><path d="M 22.671875 0.515625 C 16.472656 0.515625 12.0625 -0.132812 9.4375 -1.4375 C 6.8125 -2.738281 5.164062 -4.816406 4.5 -7.671875 C 3.84375 -10.535156 3.515625 -15.320312 3.515625 -22.03125 C 3.515625 -28.726562 3.84375 -33.503906 4.5 -36.359375 C 5.164062 -39.222656 6.8125 -41.304688 9.4375 -42.609375 C 12.0625 -43.910156 16.472656 -44.5625 22.671875 -44.5625 C 28.859375 -44.5625 33.265625 -43.910156 35.890625 -42.609375 C 38.515625 -41.304688 40.144531 -39.222656 40.78125 -36.359375 C 41.425781 -33.503906 41.75 -28.726562 41.75 -22.03125 C 41.75 -15.320312 41.425781 -10.535156 40.78125 -7.671875 C 40.144531 -4.816406 38.515625 -2.738281 35.890625 -1.4375 C 33.265625 -0.132812 28.859375 0.515625 22.671875 0.515625 Z M 22.671875 -8.515625 C 25.441406 -8.515625 27.296875 -8.738281 28.234375 -9.1875 C 29.171875 -9.632812 29.769531 -10.671875 30.03125 -12.296875 C 30.289062 -13.921875 30.421875 -17.164062 30.421875 -22.03125 C 30.421875 -26.894531 30.289062 -30.132812 30.03125 -31.75 C 29.769531 -33.375 29.171875 -34.410156 28.234375 -34.859375 C 27.296875 -35.304688 25.441406 -35.53125 22.671875 -35.53125 C 19.890625 -35.53125 18.007812 -35.304688 17.03125 -34.859375 C 16.050781 -34.410156 15.429688 -33.351562 15.171875 -31.6875 C 14.921875 -30.03125 14.796875 -26.8125 14.796875 -22.03125 C 14.796875 -17.25 14.921875 -14.023438 15.171875 -12.359375 C 15.429688 -10.691406 16.050781 -9.632812 17.03125 -9.1875 C 18.007812 -8.738281 19.890625 -8.515625 22.671875 -8.515625 Z M 22.671875 -8.515625 "/></g></g></g><g fill="#231f20" fill-opacity="1"><g transform="translate(100.171225, 271.353205)"><g><path d="M 8.6875 0 L 7.984375 -2.21875 L 3.78125 -2.21875 L 3.109375 0 L 0.140625 0 L 3.90625 -11.78125 L 7.953125 -11.78125 L 11.71875 0 Z M 5.90625 -9.140625 L 5.828125 -9.140625 L 4.46875 -4.640625 L 7.28125 -4.640625 Z M 5.90625 -9.140625 "/></g></g></g><g fill="#231f20" fill-opacity="1"><g transform="translate(120.632662, 271.353205)"><g><path d="M 10.59375 -11.78125 L 10.59375 -5.328125 C 10.59375 -3.753906 10.5 -2.601562 10.3125 -1.875 C 10.125 -1.144531 9.703125 -0.625 9.046875 -0.3125 C 8.398438 -0.0078125 7.34375 0.140625 5.875 0.140625 C 4.40625 0.140625 3.34375 -0.0078125 2.6875 -0.3125 C 2.039062 -0.625 1.617188 -1.144531 1.421875 -1.875 C 1.234375 -2.601562 1.140625 -3.753906 1.140625 -5.328125 L 1.140625 -11.78125 L 4.125 -11.78125 L 4.125 -4.6875 C 4.125 -3.875 4.148438 -3.3125 4.203125 -3 C 4.265625 -2.695312 4.410156 -2.492188 4.640625 -2.390625 C 4.867188 -2.296875 5.28125 -2.25 5.875 -2.25 C 6.46875 -2.25 6.878906 -2.296875 7.109375 -2.390625 C 7.335938 -2.492188 7.476562 -2.695312 7.53125 -3 C 7.59375 -3.3125 7.625 -3.875 7.625 -4.6875 L 7.625 -11.78125 Z M 10.59375 -11.78125 "/></g></g></g><g fill="#231f20" fill-opacity="1"><g transform="translate(141.008497, 271.353205)"><g><path d="M 3.53125 0 L 3.53125 -9.25 L 0.28125 -9.25 L 0.28125 -11.78125 L 9.78125 -11.78125 L 9.78125 -9.25 L 6.5 -9.25 L 6.5 0 Z M 3.53125 0 "/></g></g></g><g fill="#231f20" fill-opacity="1"><g transform="translate(159.655104, 271.353205)"><g><path d="M 6.0625 0.140625 C 4.40625 0.140625 3.222656 -0.03125 2.515625 -0.375 C 1.816406 -0.726562 1.378906 -1.285156 1.203125 -2.046875 C 1.023438 -2.816406 0.9375 -4.097656 0.9375 -5.890625 C 0.9375 -7.679688 1.023438 -8.957031 1.203125 -9.71875 C 1.378906 -10.488281 1.816406 -11.046875 2.515625 -11.390625 C 3.222656 -11.742188 4.40625 -11.921875 6.0625 -11.921875 C 7.71875 -11.921875 8.894531 -11.742188 9.59375 -11.390625 C 10.300781 -11.046875 10.738281 -10.488281 10.90625 -9.71875 C 11.082031 -8.957031 11.171875 -7.679688 11.171875 -5.890625 C 11.171875 -4.097656 11.082031 -2.816406 10.90625 -2.046875 C 10.738281 -1.285156 10.300781 -0.726562 9.59375 -0.375 C 8.894531 -0.03125 7.71875 0.140625 6.0625 0.140625 Z M 6.0625 -2.28125 C 6.800781 -2.28125 7.296875 -2.335938 7.546875 -2.453125 C 7.796875 -2.578125 7.957031 -2.851562 8.03125 -3.28125 C 8.101562 -3.71875 8.140625 -4.585938 8.140625 -5.890625 C 8.140625 -7.191406 8.101562 -8.054688 8.03125 -8.484375 C 7.957031 -8.921875 7.796875 -9.195312 7.546875 -9.3125 C 7.296875 -9.4375 6.800781 -9.5 6.0625 -9.5 C 5.320312 -9.5 4.816406 -9.4375 4.546875 -9.3125 C 4.285156 -9.195312 4.117188 -8.914062 4.046875 -8.46875 C 3.984375 -8.03125 3.953125 -7.171875 3.953125 -5.890625 C 3.953125 -4.609375 3.984375 -3.742188 4.046875 -3.296875 C 4.117188 -2.859375 4.285156 -2.578125 4.546875 -2.453125 C 4.816406 -2.335938 5.320312 -2.28125 6.0625 -2.28125 Z M 6.0625 -2.28125 "/></g></g></g><g fill="#231f20" fill-opacity="1"><g transform="translate(180.373361, 271.353205)"><g><path d="M 11.28125 0 L 11.28125 -7.5 L 11.171875 -7.5 L 8.640625 0 L 6.625 0 L 4.109375 -7.5 L 3.984375 -7.5 L 3.984375 0 L 1.21875 0 L 1.21875 -11.78125 L 5.3125 -11.78125 L 7.640625 -4.984375 L 7.75 -4.984375 L 10.0625 -11.78125 L 14.140625 -11.78125 L 14.140625 0 Z M 11.28125 0 "/></g></g></g><g fill="#231f20" fill-opacity="1"><g transform="translate(204.344623, 271.353205)"><g><path d="M 8.6875 0 L 7.984375 -2.21875 L 3.78125 -2.21875 L 3.109375 0 L 0.140625 0 L 3.90625 -11.78125 L 7.953125 -11.78125 L 11.71875 0 Z M 5.90625 -9.140625 L 5.828125 -9.140625 L 4.46875 -4.640625 L 7.28125 -4.640625 Z M 5.90625 -9.140625 "/></g></g></g><g fill="#231f20" fill-opacity="1"><g transform="translate(224.806062, 271.353205)"><g><path d="M 3.53125 0 L 3.53125 -9.25 L 0.28125 -9.25 L 0.28125 -11.78125 L 9.78125 -11.78125 L 9.78125 -9.25 L 6.5 -9.25 L 6.5 0 Z M 3.53125 0 "/></g></g></g><g fill="#231f20" fill-opacity="1"><g transform="translate(243.452675, 271.353205)"><g><path d="M 1.25 0 L 1.25 -11.78125 L 9.609375 -11.78125 L 9.609375 -9.375 L 4.234375 -9.375 L 4.234375 -7.15625 L 8.78125 -7.15625 L 8.78125 -4.75 L 4.234375 -4.75 L 4.234375 -2.421875 L 9.609375 -2.421875 L 9.609375 0 Z M 1.25 0 "/></g></g></g><g fill="#231f20" fill-opacity="1"><g transform="translate(262.59579, 271.353205)"><g><path d="M 8.21875 0 L 4.140625 -6.734375 L 4.0625 -6.734375 L 4.0625 0 L 1.21875 0 L 1.21875 -11.78125 L 4.28125 -11.78125 L 8.0625 -5.671875 L 8.15625 -5.671875 L 8.15625 -11.78125 L 11.015625 -11.78125 L 11.015625 0 Z M 8.21875 0 "/></g></g></g></svg>